<?xml version="1.0" encoding="utf-8"?>
<!-- Generator: Adobe Illustrator 28.0.0, SVG Export Plug-In . SVG Version: 6.00 Build 0)  -->
<svg version="1.1" id="Layer_1" xmlns="http://www.w3.org/2000/svg" xmlns:xlink="http://www.w3.org/1999/xlink" x="0px" y="0px"
	 viewBox="0 0 93 76" style="enable-background:new 0 0 93 76;" xml:space="preserve">
<style type="text/css">
	.st0{fill:#D86150;}
	.st1{fill-rule:evenodd;clip-rule:evenodd;fill:#FFFFFF;}
</style>
<path class="st0" d="M88,0H5C2.24,0,0,2.24,0,5v66c0,2.76,2.24,5,5,5h83c2.76,0,5-2.24,5-5V5C93,2.24,90.76,0,88,0z"/>
<path class="st1" d="M56.59,29.87H27.25c-1.1,0-2.15,0.52-2.91,1.43c-0.77,0.91-1.21,2.16-1.21,3.45c0,1.01,0.27,1.99,0.76,2.81
	c0.49,0.82,1.19,1.45,1.99,1.79v2h-2.6c-2.32,0-4.28,2.34-4.28,5.25c0.04,2.89,1.99,5.2,4.3,5.18h2.57v8.09
	c0,5.85,3.99,10.63,8.8,10.63h23.65c4.81,0,8.8-4.79,8.8-10.63v-8.09h2.63c2.31-0.02,4.25-2.36,4.25-5.25c0-0.05,0,0.05,0,0
	c-0.04-2.84-1.97-5.27-4.25-5.28h-2.63v-1.9c0.8-0.34,1.5-0.96,1.99-1.79c0.49-0.82,0.76-1.81,0.76-2.81c0-1.28-0.44-2.54-1.21-3.45
	c-0.77-0.91-1.83-1.43-2.92-1.43h-1.79l4.18-11.13c0.87-2.28,0.08-5.04-1.72-6.21h-0.01c-0.55-0.36-1.17-0.54-1.8-0.54
	c-1.64,0-3.12,1.25-3.68,3.15L56.59,29.87z M28.62,39.62v20.25c0,4.05,2.72,7.38,6.05,7.38h23.65c3.33,0,6.05-3.35,6.05-7.38V39.62
	H28.62z M30,52.62v6.49c0,1.72,0.58,3.4,1.62,4.62c1.04,1.23,2.44,1.92,3.9,1.92h2.74c0.76,0,1.38-0.73,1.38-1.63
	c0-0.89-0.62-1.63-1.38-1.63h-2.74c-0.73,0-1.44-0.34-1.95-0.96c-0.52-0.62-0.81-1.45-0.81-2.31v-6.48c0-0.89-0.62-1.63-1.38-1.63
	c-0.76,0-1.38,0.73-1.38,1.63L30,52.62z M52,42.87c0-0.89-0.62-1.63-1.38-1.63h-8.25c-0.76,0-1.38,0.73-1.38,1.63v4.88
	c0,0.89,0.62,1.63,1.38,1.63h8.25c0.76,0,1.38-0.73,1.38-1.63V42.87z M67.12,44.5h2.61c0.84,0,1.5,0.99,1.51,2.03
	c0,1.06-0.66,1.98-1.51,2h-2.61V44.5z M25.88,48.51h-2.58c-0.85,0-1.51-0.89-1.54-1.93c0-1.07,0.67-2,1.53-2h2.6V48.51z M49.25,44.5
	v1.63h-5.5V44.5H49.25z M65.75,36.37h-38.5c-0.37,0-0.72-0.18-0.98-0.47c-0.26-0.31-0.4-0.72-0.4-1.15c0-0.44,0.15-0.85,0.4-1.15
	c0.13-0.15,0.28-0.27,0.45-0.35c0.17-0.08,0.35-0.12,0.53-0.12h38.5c0.37,0,0.72,0.18,0.98,0.47c0.26,0.31,0.4,0.72,0.4,1.15
	c0,0.44-0.15,0.85-0.4,1.15c-0.13,0.15-0.28,0.27-0.45,0.35C66.11,36.33,65.93,36.37,65.75,36.37z M60.95,29.87l4.68-12.47
	c0.27-0.75,0.07-1.64-0.52-2.03c-0.15-0.1-0.32-0.15-0.49-0.15c-0.5,0-0.92,0.41-1.1,0.98l-4.01,13.65h1.46V29.87z M45.9,5.65
	c0,0-2.83,1.69-3.41,4.75c-0.37,1.95,0.06,4.62,3.12,7.7c1.88,1.89,2.45,3.33,2.21,4.52c-0.32,1.67-1.94,2.54-1.94,2.54
	c-0.16,0.09-0.31,0.22-0.43,0.38s-0.21,0.35-0.27,0.55c-0.06,0.2-0.08,0.42-0.07,0.63c0.01,0.21,0.06,0.42,0.14,0.61
	c0.08,0.19,0.19,0.36,0.33,0.51c0.14,0.14,0.29,0.25,0.46,0.32c0.17,0.07,0.35,0.1,0.53,0.08c0.18-0.01,0.36-0.07,0.52-0.16
	c0,0,2.83-1.69,3.41-4.75c0.37-1.95-0.06-4.63-3.12-7.7c-1.88-1.89-2.45-3.32-2.21-4.52c0.32-1.67,1.92-2.52,1.92-2.52
	c0.16-0.09,0.31-0.22,0.43-0.38s0.21-0.35,0.27-0.55c0.06-0.2,0.08-0.42,0.07-0.63c-0.01-0.21-0.06-0.42-0.14-0.61
	c-0.08-0.19-0.19-0.36-0.33-0.51c-0.14-0.14-0.29-0.25-0.46-0.32s-0.35-0.1-0.53-0.08c-0.18,0.01-0.36,0.07-0.52,0.16L45.9,5.65z
	 M54.16,8.95c0,0-1.84,1.25-2.23,3.53c-0.23,1.41,0,3.32,1.92,5.54c0.95,1.09,1.26,1.92,1.15,2.62c-0.14,0.86-0.87,1.32-0.87,1.32
	c-0.3,0.22-0.51,0.57-0.59,0.98c-0.09,0.4-0.04,0.83,0.14,1.19c0.17,0.36,0.46,0.63,0.79,0.76c0.34,0.12,0.7,0.09,1.01-0.09
	c0,0,1.84-1.25,2.21-3.54c0.23-1.41,0-3.32-1.93-5.54c-0.94-1.09-1.26-1.92-1.15-2.6c0.14-0.86,0.87-1.32,0.87-1.32
	c0.66-0.44,0.89-1.43,0.54-2.21c-0.37-0.78-1.21-1.06-1.87-0.63V8.95z M37.41,8.97c0,0-1.79,1.24-2.14,3.53
	c-0.22,1.4,0.01,3.3,1.86,5.51c0.91,1.11,1.22,1.95,1.11,2.65c-0.14,0.86-0.83,1.32-0.83,1.32c-0.66,0.46-0.88,1.45-0.49,2.23
	c0.38,0.78,1.22,1.04,1.88,0.59c0,0,1.79-1.25,2.15-3.54c0.22-1.4-0.01-3.3-1.86-5.51c-0.91-1.11-1.22-1.95-1.11-2.63
	c0.14-0.86,0.82-1.32,0.82-1.32c0.66-0.46,0.88-1.45,0.5-2.23c-0.09-0.19-0.21-0.35-0.36-0.48c-0.14-0.13-0.31-0.22-0.48-0.28
	c-0.18-0.05-0.36-0.07-0.54-0.04C37.74,8.79,37.57,8.86,37.41,8.97z"/>
</svg>
