<svg width="55" height="65" viewBox="0 0 55 65" fill="none" xmlns="http://www.w3.org/2000/svg">
<path fill-rule="evenodd" clip-rule="evenodd" d="M37.5925 24.3673H8.25C7.15 24.3673 6.105 24.8874 5.335 25.7976C4.565 26.7077 4.125 27.9592 4.125 29.2432C4.12755 30.2511 4.39297 31.2336 4.88509 32.0567C5.37721 32.8798 6.07208 33.5035 6.875 33.8428V35.842H4.27625C1.9525 35.842 0 38.1824 0 41.0917C0.04125 43.9848 1.99375 46.2927 4.30375 46.2764H6.875V54.3705C6.875 60.2216 10.8625 65 15.675 65H39.325C44.1375 65 48.125 60.2053 48.125 54.3705V46.2764H50.7513C53.0612 46.2602 55 43.9197 55 41.0267C55 40.9779 55 41.0755 55 41.0267C54.9588 38.1824 53.0337 35.7607 50.7513 35.7444H48.125V33.8428C48.9285 33.5045 49.6239 32.8811 50.1162 32.0577C50.6084 31.2344 50.8734 30.2514 50.875 29.2432C50.875 27.9592 50.435 26.7077 49.665 25.7976C48.895 24.8874 47.8363 24.3673 46.75 24.3673H44.9625L49.1425 13.2339C50.0088 10.9585 49.225 8.19547 47.4238 7.02525H47.41C46.86 6.66768 46.2412 6.48889 45.6087 6.48889C43.9725 6.48889 42.4875 7.74038 41.9238 9.64199L37.5925 24.3673ZM9.625 34.1191V54.3705C9.625 58.4175 12.3475 61.7494 15.675 61.7494H39.325C42.6525 61.7494 45.375 58.4012 45.375 54.3705V34.1191H9.625ZM11 47.1216V53.6066C11 55.3294 11.5775 57.0035 12.6225 58.2225C13.6577 59.4483 15.0622 60.1381 16.5275 60.1403H19.2638C20.02 60.1403 20.6388 59.4089 20.6388 58.515C20.6388 57.6211 20.02 56.8897 19.2638 56.8897H16.5275C15.7988 56.8897 15.0838 56.5484 14.575 55.9308C14.0525 55.3132 13.7638 54.4843 13.7638 53.6228V47.1379C13.7638 46.2439 13.145 45.5125 12.3888 45.5125C11.6325 45.5125 11.0138 46.2439 11.0138 47.1379L11 47.1216ZM33 37.3698C33 36.4758 32.3812 35.7444 31.625 35.7444H23.375C22.6187 35.7444 22 36.4758 22 37.3698V42.2457C22 43.1396 22.6187 43.871 23.375 43.871H31.625C32.3812 43.871 33 43.1396 33 42.2457V37.3698ZM48.125 38.9951H50.7375C51.5763 38.9951 52.2363 39.9865 52.25 41.0267C52.25 42.0831 51.59 43.0096 50.7375 43.0258H48.125V38.9951ZM6.875 43.0096H4.29C3.4375 43.0096 2.7775 42.1157 2.75 41.0755C2.75 40.0028 3.42375 39.0763 4.27625 39.0763H6.875V43.0096ZM30.25 38.9951V40.6204H24.75V38.9951H30.25ZM46.75 30.8685H8.25C7.87875 30.8685 7.535 30.6897 7.27375 30.3972C7.0125 30.0884 6.875 29.682 6.875 29.2432C6.875 28.8044 7.02625 28.3981 7.27375 28.0892C7.40177 27.9379 7.55406 27.8182 7.72169 27.7373C7.88933 27.6564 8.06893 27.6158 8.25 27.6179H46.75C47.1213 27.6179 47.465 27.7967 47.7262 28.0892C47.9875 28.3981 48.125 28.8044 48.125 29.2432C48.125 29.682 47.9737 30.0884 47.7262 30.3972C47.5982 30.5485 47.4459 30.6682 47.2783 30.7491C47.1107 30.8301 46.9311 30.8707 46.75 30.8685ZM41.9512 24.3673L46.6263 11.9012C46.9012 11.1535 46.695 10.2596 46.1037 9.86954C45.9513 9.77368 45.7814 9.72346 45.6087 9.72326C45.1137 9.72326 44.6875 10.1296 44.5087 10.6984L40.4938 24.351H41.9512V24.3673ZM26.895 0.150191C26.895 0.150191 24.0625 1.84051 23.485 4.89609C23.1138 6.84646 23.54 9.51197 26.6063 12.6001C28.49 14.4854 29.0537 15.9319 28.82 17.1184C28.5037 18.7925 26.8812 19.6539 26.8812 19.6539C26.7185 19.7475 26.573 19.8782 26.4531 20.0384C26.3332 20.1986 26.2412 20.3853 26.1824 20.5876C26.1237 20.79 26.0993 21.004 26.1107 21.2175C26.122 21.431 26.169 21.6398 26.2488 21.8318C26.3279 22.0242 26.4385 22.1962 26.574 22.3379C26.7096 22.4797 26.8675 22.5884 27.0387 22.6578C27.2099 22.7273 27.3909 22.7561 27.5716 22.7427C27.7522 22.7292 27.9288 22.6738 28.0913 22.5794C28.0913 22.5794 30.9237 20.8891 31.5012 17.8335C31.8725 15.8832 31.4462 13.2014 28.38 10.1296C26.4962 8.24423 25.9325 6.81396 26.1663 5.61123C26.4825 3.93716 28.0913 3.092 28.0913 3.092C28.254 2.99838 28.3995 2.86772 28.5194 2.70749C28.6393 2.54726 28.7313 2.36062 28.7901 2.15828C28.8488 1.95594 28.8732 1.74188 28.8618 1.52837C28.8505 1.31486 28.8035 1.10611 28.7237 0.914086C28.6446 0.721725 28.534 0.549737 28.3985 0.407988C28.2629 0.266239 28.105 0.157516 27.9338 0.0880556C27.7626 0.0185954 27.5816 -0.0102354 27.4009 0.00321631C27.2203 0.016668 27.0437 0.0721381 26.8812 0.166445L26.895 0.150191ZM35.1587 3.44957C35.1587 3.44957 33.3162 4.70106 32.9313 6.97649C32.6975 8.3905 32.9313 10.2921 34.8563 12.5188C35.805 13.6077 36.1213 14.4367 36.0112 15.1355C35.8738 15.9969 35.145 16.452 35.145 16.452C34.8485 16.6755 34.6358 17.0248 34.5505 17.428C34.4651 17.8313 34.5138 18.2578 34.6863 18.62C34.8589 18.9821 35.1423 19.2524 35.4782 19.3751C35.8142 19.4979 36.1771 19.4639 36.4925 19.2801C36.4925 19.2801 38.335 18.0286 38.7063 15.7369C38.94 14.3229 38.7062 12.4213 36.7812 10.1946C35.8462 9.10564 35.5163 8.27673 35.6263 7.5941C35.7637 6.73269 36.4925 6.2776 36.4925 6.2776C37.1525 5.83877 37.3862 4.84733 37.0288 4.06718C36.6575 3.28704 35.8187 3.01073 35.1587 3.43331V3.44957ZM18.4112 3.46582C18.4112 3.46582 16.6238 4.70106 16.2663 6.99274C16.0462 8.39051 16.28 10.2921 18.1225 12.5025C19.03 13.6077 19.3463 14.4529 19.2362 15.1518C19.0987 16.0132 18.4112 16.4683 18.4112 16.4683C17.7512 16.9234 17.5312 17.9148 17.9163 18.695C18.3013 19.4751 19.14 19.7352 19.8 19.2801C19.8 19.2801 21.5875 18.0286 21.945 15.7369C22.165 14.3391 21.9313 12.4375 20.0888 10.2271C19.1813 9.12189 18.865 8.27673 18.975 7.5941C19.1125 6.73269 19.8 6.2776 19.8 6.2776C20.46 5.82252 20.68 4.83108 20.295 4.05093C20.2043 3.86573 20.0835 3.70357 19.9395 3.5738C19.7955 3.44404 19.6313 3.34923 19.4562 3.29484C19.2811 3.24045 19.0986 3.22756 18.9193 3.25691C18.7399 3.28625 18.5673 3.35725 18.4112 3.46582Z" fill="white"/>
</svg>
